PathFileType	4	(X/Y/Z)	C:/Users/opensim2020/Desktop/walking_exp_matlab/subject01_walking10_straight_02.trc	
DataRate	CameraRate	NumFrames	NumMarkers	Units	OrigDataRate	OrigDataStartFrame	OrigNumFrames	
100.00	100.00	6	43	mm	100.00	2051	262	
Frame#	Time	LFHD			RFHD			LBHD			RBHD			C7			T10			CLAV			STRN			RBAK			LSHO			LUPA			LELB			LFRM			LWRA			LWRB			LFIN			RSHO			RUPA			RELB			RFRM			RWRA			RWRB			RFIN			LASI			RASI			LPSI			RPSI			LTHI			LKNE			LTIB			LANK			LHEE			LTOE			RTHI			RKNE			RTIB			RANK			RHEE			RTOE			*39			*40			*41			*42			
		X1	Y1	Z1	X2	Y2	Z2	X3	Y3	Z3	X4	Y4	Z4	X5	Y5	Z5	X6	Y6	Z6	X7	Y7	Z7	X8	Y8	Z8	X9	Y9	Z9	X10	Y10	Z10	X11	Y11	Z11	X12	Y12	Z12	X13	Y13	Z13	X14	Y14	Z14	X15	Y15	Z15	X16	Y16	Z16	X17	Y17	Z17	X18	Y18	Z18	X19	Y19	Z19	X20	Y20	Z20	X21	Y21	Z21	X22	Y22	Z22	X23	Y23	Z23	X24	Y24	Z24	X25	Y25	Z25	X26	Y26	Z26	X27	Y27	Z27	X28	Y28	Z28	X29	Y29	Z29	X30	Y30	Z30	X31	Y31	Z31	X32	Y32	Z32	X33	Y33	Z33	X34	Y34	Z34	X35	Y35	Z35	X36	Y36	Z36	X37	Y37	Z37	X38	Y38	Z38	X39	Y39	Z39	X40	Y40	Z40	X41	Y41	Z41	X42	Y42	Z42	X43	Y43	Z43	

33	0.320	-1030.79578	658.27850	1678.70105	-1141.52502	625.83948	1683.49329	-1058.64526	770.57147	1633.03931	-1176.04285	740.25092	1637.48706	-1085.34851	798.37030	1435.10547	-1083.08521	821.87268	1140.75122	-1085.67786	653.86871	1371.12988	-1075.87952	604.57166	1218.88574	-1152.82068	846.49213	1234.70264	-924.64056	712.63452	1403.67834	-833.05920	718.62457	1220.75879	-827.68726	709.08801	1068.25415	-808.63037	639.93726	974.29968	-835.27692	532.91034	890.15979	-807.91095	581.17218	866.66071	-801.04181	510.91684	820.64368	-1237.14197	721.07928	1390.38220	-1327.23279	781.97650	1186.18005	-1326.58472	780.71338	1062.19800	-1356.96155	754.93396	944.54572	-1342.95105	672.61945	828.29254	-1378.70410	719.27411	828.76392	-1376.38794	682.77661	749.43585	-972.33344	650.49188	934.35168	-1187.43286	640.48352	941.56421	-1031.26831	833.45917	949.68494	-1177.04333	825.20734	955.37372	-913.97528	692.07495	597.94543	-921.42969	715.05957	465.34418	-910.77869	858.39850	345.31461	-954.39850	1005.89117	178.53313	-1007.75555	1054.28271	189.62675	-967.38593	942.36542	45.25110	-1245.00830	660.83997	610.90631	-1215.69080	628.98602	456.77664	-1221.51733	660.72485	282.25583	-1171.53271	660.25696	77.66433	-1121.68799	707.84601	38.94514	-1169.30493	518.71381	40.50936	-1121.51257	641.56226	1717.27344	-3101.94922	1973.12952	1023.52820	-3140.64087	2012.51270	1022.08691			 
34	0.330	-1032.45422	651.39276	1679.07507	-1142.91907	618.86371	1683.61133	-1060.54602	763.55377	1633.30969	-1177.83887	733.14313	1637.81189	-1087.20984	791.52399	1435.47815	-1085.20740	815.38580	1141.09155	-1087.33594	647.18097	1371.27930	-1077.44153	598.07617	1218.92822	-1155.09583	839.72565	1235.14233	-926.30963	706.25464	1403.72021	-835.18274	713.86945	1220.49011	-829.96143	705.27734	1067.97180	-810.54889	637.55273	973.31348	-836.76282	531.23163	887.94397	-809.64026	580.18933	864.91016	-802.85272	510.13638	818.07745	-1238.72461	713.87726	1390.59534	-1329.54688	773.98431	1186.47620	-1328.85986	772.46478	1062.44507	-1359.18738	746.10645	944.83856	-1344.49194	663.47174	828.90637	-1380.39355	709.82697	829.21576	-1377.76257	673.14325	750.03186	-973.84473	644.55579	934.58685	-1189.03870	634.48352	941.33099	-1032.88489	827.53479	949.45343	-1178.66797	819.37244	955.50580	-914.80664	679.89795	598.06732	-922.00714	700.69897	465.31070	-910.91632	843.99463	346.69507	-954.59821	995.15381	183.57207	-1007.87775	1043.36182	195.53371	-966.68652	934.08417	48.99919	-1246.05884	657.32410	610.66974	-1216.81396	626.27716	456.50894	-1221.90930	659.47607	282.03238	-1171.63257	660.21143	77.63314	-1121.69202	707.76398	39.03053	-1169.29651	518.51904	40.33897	-1122.90576	634.58722	1717.33789	-3101.88550	1973.17578	1023.40533	-3140.77148	2012.45313	1021.87079			 
35	0.340	-1033.94470	644.53351	1679.28967	-1144.62061	611.61365	1683.83875	-1062.34265	756.66913	1633.67517	-1179.58130	725.99109	1638.11658	-1089.02771	784.71161	1435.90625	-1087.40088	808.93793	1141.30200	-1088.74316	640.55536	1371.33215	-1078.93079	591.72925	1218.86670	-1157.29150	833.13342	1235.61157	-927.80463	699.87921	1403.74292	-837.29639	709.26581	1220.14709	-832.15717	701.75427	1067.78259	-812.65106	634.97583	972.45416	-838.31512	529.59088	885.78174	-811.56946	578.82544	863.21912	-804.50415	509.59473	815.49799	-1240.47498	706.73132	1390.94080	-1331.94702	766.01868	1186.72595	-1331.10229	764.26208	1062.55383	-1361.20447	737.26636	945.07983	-1346.02759	654.23578	829.50702	-1382.14063	700.25256	829.50671	-1379.35168	663.29431	750.46051	-975.39697	638.58539	934.54144	-1190.56360	628.64063	941.18231	-1034.39087	821.69360	949.11841	-1180.09338	813.58008	955.58789	-915.78546	668.02087	598.36920	-922.67828	686.47540	465.43274	-910.80267	829.56219	347.63110	-955.56976	984.21759	188.39804	-1009.25916	1032.08337	200.01015	-965.30652	923.39563	53.58945	-1247.08752	653.64972	610.55408	-1217.69141	623.34918	455.94394	-1222.23120	657.73566	281.82257	-1171.57471	659.95892	77.56828	-1121.64172	707.76074	39.00272	-1169.26733	518.30194	40.13982	-1124.48743	627.47095	1717.54285	-3101.99097	1973.04980	1023.43134	-3140.55933	2012.52930	1021.93048			 
36	0.350	-1035.46484	637.60492	1679.38403	-1146.01636	604.44043	1684.02356	-1064.05640	749.87225	1634.12817	-1181.20435	718.84760	1638.37109	-1090.81213	777.94916	1436.31311	-1089.35669	802.72418	1141.70056	-1090.17700	633.93134	1371.38391	-1080.29553	585.51050	1218.67285	-1159.37878	826.67316	1236.14417	-929.30176	693.56616	1403.75500	-839.34985	704.68988	1219.82019	-834.83118	697.67603	1067.24597	-814.51440	632.68842	971.40466	-839.78253	528.04993	883.56116	-813.50195	577.50848	861.49860	-806.18628	509.04486	812.92920	-1241.92188	699.67065	1391.10388	-1333.89185	757.96301	1186.77698	-1333.33044	755.97827	1062.68005	-1363.20447	728.34717	945.33795	-1347.51868	644.99762	830.03381	-1384.12183	690.85144	829.93542	-1380.90796	653.62878	751.06122	-976.68762	632.81085	934.55121	-1192.13794	622.93744	941.10541	-1035.73621	815.92389	948.78033	-1181.38318	807.94403	955.68903	-916.71356	656.33258	598.84680	-923.48071	672.31085	465.67847	-911.00262	815.38745	348.33054	-956.67059	972.39532	192.36674	-1011.17322	1020.12476	203.44490	-963.31818	911.71838	57.79293	-1248.02393	649.07684	610.59351	-1218.47363	620.28094	455.65137	-1222.54578	655.58112	281.65652	-1171.50549	659.67474	77.54907	-1121.62427	707.70422	39.09490	-1168.98596	518.28625	39.90057	-1125.90918	620.29498	1717.86658	-3101.91895	1973.17920	1023.27954	-3140.60400	2012.54907	1022.02515			 
37	0.360	-1036.66614	630.77380	1679.60291	-1147.28223	597.31866	1684.11938	-1065.64087	742.96191	1634.38257	-1182.75256	711.64661	1638.60754	-1092.54871	771.19073	1436.74829	-1091.22656	796.69055	1142.18384	-1091.53076	627.36218	1371.31958	-1081.55933	579.37244	1218.54041	-1161.33252	820.33942	1236.73071	-930.66943	687.23260	1403.79529	-841.34491	700.14526	1219.53528	-836.66602	694.16302	1067.16553	-816.59436	630.06555	970.59906	-841.30859	526.56512	881.44287	-815.40607	576.42767	859.93103	-807.74316	508.55215	810.48395	-1243.46277	692.59424	1391.22009	-1336.07483	749.94073	1186.94873	-1335.46716	747.76532	1062.79370	-1365.34424	719.37427	945.53326	-1349.10742	635.77338	830.55811	-1385.86365	681.29523	830.26373	-1382.67908	643.84558	751.60492	-977.83502	627.18750	934.54517	-1193.58423	617.44397	941.02942	-1036.94141	810.24188	948.52673	-1182.55322	802.65082	955.81873	-917.49890	644.92645	599.73706	-924.38489	658.36487	466.30432	-911.94061	801.52191	349.24655	-957.99219	959.68097	195.84721	-1013.13293	1007.34412	206.13475	-961.45642	898.45929	61.78666	-1248.95508	645.16241	610.29712	-1219.10901	616.93646	455.11050	-1222.65173	653.02618	281.30124	-1171.35425	659.36975	77.46747	-1121.58594	707.62860	39.21420	-1168.86536	517.93530	39.76945	-1127.33752	613.08527	1718.11780	-3101.89575	1973.13550	1023.35248	-3140.65625	2012.50500	1022.15668			 
38	0.370	-1038.01184	623.94464	1679.70044	-1148.54785	590.13574	1684.24292	-1067.19788	736.01617	1634.61926	-1184.26697	704.46222	1638.84265	-1094.15747	764.49463	1437.17688	-1092.99292	790.72748	1142.64868	-1092.77795	620.83331	1371.30066	-1082.79517	573.26422	1218.33130	-1163.15820	814.00793	1237.34167	-932.01514	680.93756	1403.87952	-843.22534	695.63519	1219.32703	-838.79559	690.66083	1067.08411	-818.43250	627.80078	969.70532	-842.79584	525.23584	879.31165	-817.12183	575.32025	858.37372	-809.28589	508.31363	807.96002	-1244.80481	685.62079	1391.41992	-1337.82495	741.95544	1186.98486	-1337.58215	739.57782	1062.86560	-1367.24377	710.46362	945.77478	-1350.59644	626.51984	831.16064	-1387.51062	671.61163	830.61707	-1384.30347	634.06189	752.19635	-979.20197	621.49872	934.57373	-1195.20911	611.99731	940.98828	-1038.08496	804.62604	948.40735	-1183.78625	797.80573	956.03284	-918.02332	633.67145	600.98798	-925.15198	644.43683	467.43359	-913.20276	787.83185	350.42676	-959.46606	946.33746	198.65157	-1015.17670	993.87665	208.03252	-959.69012	885.08325	64.69038	-1249.71875	640.76276	609.80035	-1219.31580	613.62622	454.62372	-1222.72314	650.44861	281.11377	-1171.03040	658.78772	77.39185	-1121.54785	707.56927	39.31833	-1168.52185	517.88708	39.51831	-1128.70386	605.83759	1718.30054	-3101.98633	1973.08325	1023.32819	-3140.62256	2012.43384	1021.97906			 
